<?xml version="1.0" encoding="UTF-8" standalone="no"?>
<svg
   width="512"
   height="512"
   viewBox="0 0 512 512"
   fill="none"
   version="1.1"
   id="svg241"
   sodipodi:docname="flying.svg"
   inkscape:version="1.1.1 (3bf5ae0d25, 2021-09-20)"
   xmlns:inkscape="http://www.inkscape.org/namespaces/inkscape"
   xmlns:sodipodi="http://sodipodi.sourceforge.net/DTD/sodipodi-0.dtd"
   xmlns="http://www.w3.org/2000/svg"
   xmlns:svg="http://www.w3.org/2000/svg">
  <defs
     id="defs245" />
  <sodipodi:namedview
     id="namedview243"
     pagecolor="#ffffff"
     bordercolor="#666666"
     borderopacity="1.0"
     inkscape:pageshadow="2"
     inkscape:pageopacity="0.0"
     inkscape:pagecheckerboard="0"
     showgrid="false"
     inkscape:zoom="1.5175781"
     inkscape:cx="256"
     inkscape:cy="256"
     inkscape:window-width="1920"
     inkscape:window-height="1015"
     inkscape:window-x="0"
     inkscape:window-y="32"
     inkscape:window-maximized="1"
     inkscape:current-layer="svg241" />
  <path
     fill-rule="evenodd"
     clip-rule="evenodd"
     d="M178.712 477.733C253.715 477.733 317.927 436.048 344.436 376.956C344.76 376.235 238.007 404.699 241.411 394.637C242.931 390.144 308.371 366.238 356.048 338.354C383.451 322.327 396.07 288.4 396.07 288.4C396.07 288.4 349.903 310.815 326.564 316.501C279.532 327.961 238.131 326.727 238.131 325.533C238.131 322.951 306.876 309.889 402.424 251.664C447.367 224.277 459.574 177.103 459.574 177.103C459.574 177.103 410.163 206.535 380.293 216.252C309.457 239.295 244.815 246.239 244.815 243.121C244.815 236.445 301.702 220.802 362.016 191.577C393.376 176.382 420.535 156.53 452.008 134.453C503.506 98.332 511.999 34 511.999 34C511.999 34 461.207 66.7601 436.42 77.6394C334.141 122.531 243.829 146.079 178.712 151.177C80.416 158.873 0 227.456 0 316.501C0 405.547 80.0119 477.733 178.712 477.733Z"
     fill="white"
     id="path239"
     style="fill:#000000" />
</svg>
