<?xml version="1.0" encoding="UTF-8" standalone="no"?>
<svg
   width="512"
   height="512"
   viewBox="0 0 512 512"
   fill="none"
   version="1.1"
   id="svg287"
   sodipodi:docname="ghost.svg"
   inkscape:version="1.1.1 (3bf5ae0d25, 2021-09-20)"
   xmlns:inkscape="http://www.inkscape.org/namespaces/inkscape"
   xmlns:sodipodi="http://sodipodi.sourceforge.net/DTD/sodipodi-0.dtd"
   xmlns="http://www.w3.org/2000/svg"
   xmlns:svg="http://www.w3.org/2000/svg">
  <defs
     id="defs291" />
  <sodipodi:namedview
     id="namedview289"
     pagecolor="#ffffff"
     bordercolor="#666666"
     borderopacity="1.0"
     inkscape:pageshadow="2"
     inkscape:pageopacity="0.0"
     inkscape:pagecheckerboard="0"
     showgrid="false"
     inkscape:zoom="1.5175781"
     inkscape:cx="256"
     inkscape:cy="256"
     inkscape:window-width="1920"
     inkscape:window-height="1015"
     inkscape:window-x="0"
     inkscape:window-y="32"
     inkscape:window-maximized="1"
     inkscape:current-layer="svg287" />
  <path
     fill-rule="evenodd"
     clip-rule="evenodd"
     d="M368.952 510.227C322.769 512.591 269.896 512.591 251.928 510.227C111.77 491.788 0 389.313 0 250.8C0 112.287 114.615 0 256 0C397.385 0 512 112.287 512 250.8C512 315.221 487.207 373.969 446.46 418.387C435.395 430.448 450.577 438.908 466.002 447.504C481.13 455.935 496.492 464.496 487.564 476.712C477.726 490.173 424.392 507.389 368.952 510.227ZM220 219.45C220 241.092 202.091 258.637 180 258.637C157.909 258.637 140 241.092 140 219.45C140 204.935 148.055 192.264 160.024 185.491C160.713 204.362 176.229 219.449 195.269 219.449H220C220 219.449 220 219.45 220 219.45ZM343.976 185.491C343.287 204.362 327.771 219.449 308.731 219.449H284C284 219.449 284 219.45 284 219.45C284 241.092 301.909 258.637 324 258.637C346.091 258.637 364 241.092 364 219.45C364 204.935 355.945 192.264 343.976 185.491Z"
     fill="white"
     id="path285"
     style="fill:#000000" />
</svg>
