<?xml version="1.0" encoding="UTF-8" standalone="no"?>
<svg
   width="512"
   height="512"
   viewBox="0 0 512 512"
   fill="none"
   version="1.1"
   id="svg447"
   sodipodi:docname="ice.svg"
   inkscape:version="1.1.1 (3bf5ae0d25, 2021-09-20)"
   xmlns:inkscape="http://www.inkscape.org/namespaces/inkscape"
   xmlns:sodipodi="http://sodipodi.sourceforge.net/DTD/sodipodi-0.dtd"
   xmlns="http://www.w3.org/2000/svg"
   xmlns:svg="http://www.w3.org/2000/svg">
  <defs
     id="defs451" />
  <sodipodi:namedview
     id="namedview449"
     pagecolor="#ffffff"
     bordercolor="#666666"
     borderopacity="1.0"
     inkscape:pageshadow="2"
     inkscape:pageopacity="0.0"
     inkscape:pagecheckerboard="0"
     showgrid="false"
     inkscape:zoom="1.5175781"
     inkscape:cx="256"
     inkscape:cy="256"
     inkscape:window-width="1920"
     inkscape:window-height="1015"
     inkscape:window-x="0"
     inkscape:window-y="32"
     inkscape:window-maximized="1"
     inkscape:current-layer="svg447" />
  <path
     fill-rule="evenodd"
     clip-rule="evenodd"
     d="M384.304 39.0418L385.879 177.392L265.209 235.319L263.721 104.69L384.304 39.0418Z"
     fill="white"
     id="path435"
     style="fill:#000000" />
  <path
     fill-rule="evenodd"
     clip-rule="evenodd"
     d="M505.269 257.047L385.814 325.374L266.288 256.939L385.752 194.187L505.269 257.047Z"
     fill="white"
     id="path437"
     style="fill:#000000" />
  <path
     fill-rule="evenodd"
     clip-rule="evenodd"
     d="M245.04 257.047L125.585 325.374L6.05861 256.939L125.523 194.187L245.04 257.047Z"
     fill="white"
     id="path439"
     style="fill:#000000" />
  <path
     fill-rule="evenodd"
     clip-rule="evenodd"
     d="M124.243 38.4753L248.229 99.881L245.059 233.697L127.993 175.719L124.243 38.4753Z"
     fill="white"
     id="path441"
     style="fill:#000000" />
  <path
     fill-rule="evenodd"
     clip-rule="evenodd"
     d="M387.678 473.525L263.692 412.119L266.862 278.302L383.928 336.281L387.678 473.525Z"
     fill="white"
     id="path443"
     style="fill:#000000" />
  <path
     fill-rule="evenodd"
     clip-rule="evenodd"
     d="M128.525 474.77L126.949 336.42L247.62 278.493L249.108 409.121L128.525 474.77Z"
     fill="white"
     id="path445"
     style="fill:#000000" />
</svg>
