<?xml version="1.0" encoding="UTF-8" standalone="no"?>
<svg
   width="512"
   height="512"
   viewBox="0 0 512 512"
   fill="none"
   version="1.1"
   id="svg588"
   sodipodi:docname="water.svg"
   inkscape:version="1.1.1 (3bf5ae0d25, 2021-09-20)"
   xmlns:inkscape="http://www.inkscape.org/namespaces/inkscape"
   xmlns:sodipodi="http://sodipodi.sourceforge.net/DTD/sodipodi-0.dtd"
   xmlns="http://www.w3.org/2000/svg"
   xmlns:svg="http://www.w3.org/2000/svg">
  <defs
     id="defs592" />
  <sodipodi:namedview
     id="namedview590"
     pagecolor="#ffffff"
     bordercolor="#666666"
     borderopacity="1.0"
     inkscape:pageshadow="2"
     inkscape:pageopacity="0.0"
     inkscape:pagecheckerboard="0"
     showgrid="false"
     inkscape:zoom="1.5175781"
     inkscape:cx="256"
     inkscape:cy="256"
     inkscape:window-width="1920"
     inkscape:window-height="1015"
     inkscape:window-x="0"
     inkscape:window-y="32"
     inkscape:window-maximized="1"
     inkscape:current-layer="svg588" />
  <path
     fill-rule="evenodd"
     clip-rule="evenodd"
     d="M422.172 346.515C422.172 437.897 347.813 511.977 256.086 511.977C164.359 511.977 90 437.897 90 346.515C90 257.639 247.102 13.5479 255.718 0.22781C255.915 -0.0759384 256.258 -0.0759358 256.454 0.227813C265.07 13.5479 422.172 257.639 422.172 346.515ZM228.4 458.931C144.12 440.49 158.542 347.13 158.542 347.13C158.542 347.13 181.556 403.488 237.405 421.744C293.253 439.999 360.745 413.225 360.745 413.225C360.745 413.225 312.68 477.371 228.4 458.931Z"
     fill="white"
     id="path586"
     style="fill:#000000" />
</svg>
